<svg width="288" height="69" viewBox="0 0 288 69" fill="none" xmlns="http://www.w3.org/2000/svg">
<path d="M102.44 29.14C103.64 29.8192 104.609 30.8435 105.22 32.08C105.922 33.5343 106.265 35.1358 106.22 36.75V48.56H101.14V37.44C101.227 36.1048 100.798 34.7871 99.94 33.76C99.5185 33.3242 99.0086 32.9836 98.4446 32.7611C97.8806 32.5386 97.2755 32.4394 96.67 32.47C96.0553 32.4372 95.4406 32.5352 94.8665 32.7576C94.2925 32.9799 93.7722 33.3216 93.34 33.76C92.4714 34.782 92.0339 36.1016 92.12 37.44V48.56H87V21.67H92.08V30.94C92.7652 30.0455 93.6669 29.34 94.7 28.89C95.8411 28.3792 97.0799 28.1232 98.33 28.14C99.7644 28.1035 101.183 28.4486 102.44 29.14Z" fill="white"/>
<path d="M111 33C111.743 31.5078 112.885 30.2511 114.3 29.37C115.707 28.5185 117.325 28.0786 118.97 28.1C120.358 28.0599 121.733 28.3694 122.97 29C124.03 29.5521 124.952 30.3346 125.67 31.29V28.43H130.8V48.56H125.67V45.62C124.975 46.6094 124.048 47.4129 122.97 47.96C121.736 48.6006 120.36 48.9204 118.97 48.89C117.329 48.9092 115.718 48.4543 114.33 47.58C112.903 46.6832 111.75 45.4097 111 43.9C110.159 42.2014 109.741 40.3249 109.78 38.43C109.739 36.5477 110.158 34.6838 111 33ZM124.9 35.31C124.433 34.4701 123.74 33.7774 122.9 33.31C122.097 32.8542 121.189 32.6146 120.265 32.6146C119.341 32.6146 118.433 32.8542 117.63 33.31C116.816 33.7913 116.146 34.482 115.69 35.31C115.175 36.2782 114.92 37.3636 114.95 38.46C114.922 39.5657 115.177 40.6602 115.69 41.64C116.158 42.5029 116.848 43.2247 117.69 43.73C118.474 44.2037 119.374 44.4528 120.29 44.45C121.236 44.4527 122.164 44.1994 122.978 43.717C123.791 43.2346 124.459 42.5411 124.91 41.71C125.384 40.717 125.63 39.6305 125.63 38.53C125.63 37.4296 125.384 36.3431 124.91 35.35L124.9 35.31Z" fill="white"/>
<path d="M140.78 21.67V48.56H135.7V21.67H140.78Z" fill="white"/>
<path d="M149.51 47.6C147.977 46.7667 146.708 45.5193 145.85 44C144.947 42.3279 144.492 40.4502 144.53 38.55C144.489 36.6445 144.958 34.7628 145.89 33.1C146.766 31.5583 148.054 30.291 149.61 29.44C151.239 28.599 153.046 28.1602 154.88 28.1602C156.714 28.1602 158.521 28.599 160.15 29.44C161.711 30.2878 163.003 31.5556 163.88 33.1C164.812 34.7628 165.281 36.6445 165.24 38.55C165.276 40.46 164.792 42.344 163.84 44C162.941 45.5419 161.632 46.8051 160.06 47.65C158.424 48.5214 156.594 48.9652 154.74 48.94C152.91 48.9527 151.108 48.491 149.51 47.6ZM157.34 43.79C158.168 43.327 158.842 42.6317 159.28 41.79C159.789 40.7701 160.037 39.6394 160 38.5C160.052 37.7001 159.945 36.898 159.686 36.1395C159.426 35.381 159.02 34.6811 158.49 34.08C158.014 33.5832 157.441 33.1901 156.806 32.9251C156.171 32.6601 155.488 32.529 154.8 32.54C154.117 32.5241 153.439 32.6531 152.81 32.9186C152.181 33.184 151.615 33.5799 151.15 34.08C150.1 35.3041 149.573 36.8911 149.68 38.5C149.572 40.0992 150.084 41.6787 151.11 42.91C151.567 43.4132 152.126 43.8122 152.751 44.0796C153.376 44.3471 154.051 44.4768 154.73 44.46C155.643 44.4604 156.54 44.2299 157.34 43.79Z" fill="white"/>
<path d="M196.89 28.4301L191 48.5601H185.51L181.85 34.5001L178.18 48.5601H172.65L166.73 28.4301H171.89L175.45 43.7701L179.3 28.4301H184.68L188.46 43.7301L192 28.4301H196.89Z" fill="white"/>
<path d="M218.22 40.0001H203.51C203.542 41.2966 204.076 42.5301 205 43.4401C205.902 44.2647 207.088 44.709 208.31 44.6801C209.145 44.7222 209.973 44.512 210.686 44.0768C211.4 43.6416 211.966 43.0015 212.31 42.2401H217.8C217.246 44.138 216.096 45.8071 214.52 47.0001C212.762 48.2835 210.625 48.9417 208.45 48.8701C206.628 48.8995 204.829 48.455 203.23 47.5801C201.72 46.7492 200.475 45.5081 199.64 44.0001C198.755 42.322 198.312 40.4467 198.35 38.5501C198.298 36.6225 198.734 34.7131 199.62 33.0001C200.425 31.4672 201.663 30.2049 203.18 29.3701C204.792 28.5483 206.576 28.1199 208.385 28.1199C210.194 28.1199 211.978 28.5483 213.59 29.3701C215.083 30.1718 216.31 31.3916 217.12 32.8801C217.974 34.4819 218.404 36.2753 218.37 38.0901C218.373 38.7298 218.323 39.3687 218.22 40.0001ZM213.1 36.5901C213.112 35.994 212.991 35.4026 212.745 34.8593C212.5 34.316 212.136 33.8346 211.68 33.4501C210.739 32.6495 209.535 32.2255 208.3 32.2601C207.133 32.2298 205.998 32.6404 205.12 33.4101C204.222 34.2411 203.66 35.3725 203.54 36.5901H213.1Z" fill="white"/>
<path d="M222 33C222.745 31.5065 223.891 30.2496 225.31 29.37C226.724 28.5174 228.349 28.0807 230 28.11C231.368 28.0783 232.722 28.3876 233.94 29.01C235.002 29.5623 235.928 30.3446 236.65 31.3V28.43H241.78V48.56H236.65V45.62C235.945 46.6292 235 47.4471 233.9 48C232.667 48.6426 231.29 48.9626 229.9 48.93C228.263 48.949 226.655 48.494 225.27 47.62C223.862 46.7003 222.732 45.4142 222 43.9C221.167 42.1989 220.752 40.3236 220.79 38.43C220.75 36.549 221.166 34.6863 222 33ZM235.91 35.31C235.443 34.4701 234.75 33.7774 233.91 33.31C233.104 32.8461 232.19 32.6046 231.26 32.61C230.341 32.6025 229.436 32.8407 228.64 33.3C227.824 33.7786 227.154 34.4699 226.7 35.3C226.181 36.2672 225.923 37.3527 225.95 38.45C225.925 39.5566 226.183 40.6511 226.7 41.63C227.168 42.4929 227.858 43.2147 228.7 43.72C229.484 44.1937 230.384 44.4428 231.3 44.44C232.246 44.4427 233.174 44.1894 233.988 43.707C234.801 43.2246 235.469 42.5311 235.92 41.7C236.394 40.707 236.64 39.6204 236.64 38.52C236.64 37.4196 236.394 36.333 235.92 35.34L235.91 35.31Z" fill="white"/>
<path d="M255.11 43.8801L260.2 28.4301H265.61L258.16 48.5601H252L244.59 28.4301H250L255.11 43.8801Z" fill="white"/>
<path d="M287.05 40.0001H272.33C272.377 41.2953 272.926 42.5215 273.86 43.4201C274.762 44.2447 275.948 44.689 277.17 44.6601C278.005 44.7023 278.833 44.492 279.546 44.0568C280.26 43.6216 280.826 42.9816 281.17 42.2201H286.66C286.102 44.132 284.937 45.81 283.34 47.0001C281.586 48.2834 279.452 48.9418 277.28 48.8701C275.458 48.8996 273.659 48.455 272.06 47.5801C270.535 46.7336 269.285 45.4666 268.46 43.9301C267.575 42.252 267.132 40.3767 267.17 38.4801C267.134 36.5766 267.571 34.6939 268.44 33.0001C269.251 31.4741 270.488 30.2164 272 29.3801C273.612 28.5583 275.396 28.1299 277.205 28.1299C279.014 28.1299 280.798 28.5583 282.41 29.3801C283.903 30.1791 285.127 31.3998 285.93 32.8901C286.792 34.4893 287.226 36.2839 287.19 38.1001C287.196 38.7362 287.149 39.3717 287.05 40.0001ZM281.93 36.5901C281.942 35.994 281.821 35.4026 281.575 34.8593C281.33 34.3161 280.966 33.8346 280.51 33.4501C279.569 32.6495 278.365 32.2256 277.13 32.2601C275.978 32.2479 274.862 32.6649 274 33.4301C273.102 34.2611 272.54 35.3925 272.42 36.6101L281.93 36.5901Z" fill="white"/>
<path d="M6.26999 35.22C7.73999 70.82 58.46 70.81 59.93 35.22C59.93 31.6967 59.236 28.2078 57.8877 24.9526C56.5393 21.6975 54.5631 18.7397 52.0717 16.2483C49.5803 13.7569 46.6226 11.7807 43.3674 10.4323C40.1122 9.08399 36.6234 8.39001 33.1 8.39001C29.5766 8.39001 26.0878 9.08399 22.8326 10.4323C19.5774 11.7807 16.6197 13.7569 14.1283 16.2483C11.6369 18.7397 9.66063 21.6975 8.3123 24.9526C6.96397 28.2078 6.26999 31.6967 6.26999 35.22ZM56.94 35.22C56.94 41.5428 54.4283 47.6066 49.9574 52.0774C45.4865 56.5483 39.4227 59.06 33.1 59.06C26.7772 59.06 20.7134 56.5483 16.2426 52.0774C11.7717 47.6066 9.25999 41.5428 9.25999 35.22C10.57 3.59002 55.63 3.60002 56.94 35.22Z" fill="#F9F9F9"/>
<path d="M19.39 2.05005L0 21.4401V48.8601L19.39 68.25H46.81L66.2 48.8601V21.4401L46.81 2.05005H19.39ZM63.44 47.7201L45.67 65.49H20.53L2.76 47.7201V22.58L20.53 4.81005H45.67L63.44 22.58V47.7201Z" fill="#F9F9F9"/>
<path d="M62.79 9.19539e-06C61.7152 -0.00196837 60.664 0.315066 59.7695 0.910961C58.875 1.50686 58.1775 2.3548 57.7653 3.34741C57.353 4.34002 57.2447 5.43264 57.4539 6.48689C57.6631 7.54114 58.1804 8.50959 58.9404 9.26959C59.7004 10.0296 60.6689 10.547 61.7231 10.7562C62.7774 10.9654 63.87 10.857 64.8626 10.4448C65.8552 10.0325 66.7032 9.335 67.299 8.44051C67.8949 7.54602 68.212 6.49481 68.21 5.42001C68.2074 3.98335 67.6355 2.60628 66.6196 1.59041C65.6037 0.574535 64.2267 0.00265255 62.79 9.19539e-06ZM62.79 8.14001C62.2516 8.14199 61.7247 7.98415 61.2761 7.68648C60.8275 7.3888 60.4773 6.96469 60.2699 6.46786C60.0625 5.97102 60.0072 5.42381 60.111 4.89552C60.2149 4.36723 60.4731 3.88164 60.8531 3.50024C61.2331 3.11884 61.7178 2.85879 62.2457 2.75303C62.7736 2.64726 63.321 2.70054 63.8186 2.90611C64.3162 3.11169 64.7416 3.46031 65.0409 3.90782C65.3402 4.35534 65.5 4.88162 65.5 5.42001C65.5 6.13967 65.2148 6.83 64.7069 7.33981C64.1989 7.84963 63.5097 8.13736 62.79 8.14001Z" fill="#F9F9F9"/>
</svg>
